HIERARCHY
ROOT ui
{
	 OFFSET 0 0 0
	 CHANNELS 3 XPosition YPosition Z Position
	 EndSite
	 {
	 OFFSET 0 -1 0
	 }
}
ROOT li
{
	 OFFSET 0 0 0
	 CHANNELS 3 XPosition YPosition Z Position
	 EndSite
	 {
	 OFFSET 0 -1 0
	 }
}
ROOT ul
{
	 OFFSET 0 0 0
	 CHANNELS 3 XPosition YPosition Z Position
	 EndSite
	 {
	 OFFSET 0 -1 0
	 }
}
ROOT ll
{
	 OFFSET 0 0 0
	 CHANNELS 3 XPosition YPosition Z Position
	 EndSite
	 {
	 OFFSET 0 -1 0
	 }
}
ROOT tt
{
	 OFFSET 0 0 0
	 CHANNELS 3 XPosition YPosition Z Position
	 EndSite
	 {
	 OFFSET 0 -1 0
	 }
}
ROOT tb
{
	 OFFSET 0 0 0
	 CHANNELS 3 XPosition YPosition Z Position
	 EndSite
	 {
	 OFFSET 0 -1 0
	 }
}
ROOT td
{
	 OFFSET 0 0 0
	 CHANNELS 3 XPosition YPosition Z Position
	 EndSite
	 {
	 OFFSET 0 -1 0
	 }
}
ROOT v
{
	 OFFSET 0 0 0
	 CHANNELS 3 XPosition YPosition Z Position
	 EndSite
	 {
	 OFFSET 0 -1 0
	 }
}
ROOT bn
{
	 OFFSET 0 0 0
	 CHANNELS 3 XPosition YPosition Z Position
	 EndSite
	 {
	 OFFSET 0 -1 0
	 }
}
MOTION
Frames: 24
Frame Time: 0.002
-9.183539748191834E-4	-6.238049864768982E-4	0		0.4975495910644531	-2.539205322265625	0		-1.0261229248046875	-0.0568073959350586	0		-0.8058328857421875	-2.33023583984375	0		0.858374267578125	-0.7005210571289062	0		2.6584697265625	0.05055035018920898	0		4.30478173828125	0.1613377227783203	0		5.5682646484375	0.06712043762207032	0		0.01071734619140625	6.02417822265625	0		
0.009460280418395996	0.009427727699279785	0		0.5028473510742187	-2.533062744140625	0		-1.0228901977539062	-0.05462261962890625	0		-0.7906830444335937	-2.332271484375	0		0.8606050415039063	-0.6983240356445313	0		2.658372802734375	0.03478128814697266	0		4.31368359375	0.14539801025390625	0		5.581220703125	0.05410265350341797	0		0.010860116004943847	6.020416015625	0		
0.01660296440124512	0.006536779880523681	0		0.503057861328125	-2.5318271484375	0		-1.010509765625	-0.04460482406616211	0		-0.791508544921875	-2.333013671875	0		0.8659114990234374	-0.6921820678710937	0		2.687099853515625	0.06349205398559571	0		4.3042333984375	0.1648040313720703	0		5.5855478515625	0.061250110626220704	0		0.04416156387329102	6.0250458984375	0		
0.003762056112289429	0.0040221700668334965	0		0.5146857299804688	-2.5087880859375	0		-0.9613612060546874	-0.048256477355957034	0		-0.7313110961914062	-2.333868408203125	0		0.853087646484375	-0.6936984252929688	0		2.646988037109375	0.04647092056274414	0		4.314333984375	0.1588592529296875	0		5.5699462890625	0.07177784729003907	0		0.008317591667175293	6.0219541015625	0		
0.0070500001907348635	0.007228676795959473	0		0.5154938354492188	-2.531540771484375	0		-0.9621461181640625	-0.048974838256835934	0		-0.8070305786132812	-2.330209716796875	0		0.8492474365234375	-0.6973629760742187	0		2.646203125	0.04574893569946289	0		4.3064033203125	0.15026554870605469	0		5.5739951171875	0.06196258544921875	0		0.007538766860961914	6.02123486328125	0		
0.00221990704536438	0.0026052260398864747	0		0.5245692138671875	-2.541420654296875	0		-0.9629034423828124	-0.0496723518371582	0		-0.7630345458984376	-2.344731689453125	0		0.8515447387695313	-0.6951163330078125	0		2.64544580078125	0.045051040649414065	0		4.30564599609375	0.14956747436523438	0		5.569091796875	0.05333921813964844	0		0.006782125949859619	6.020537109375	0		
0.00149515700340271	0.0019337710142135621	0		0.47100234985351563	-2.533119384765625	0		-1.0267828369140626	-0.05818564987182617	0		-0.7945868530273438	-2.335835693359375	0		0.8567092895507813	-0.7018963623046875	0		2.66995556640625	0.056920162200927736	0		4.29703271484375	0.15504531860351561	0		5.57251318359375	0.060597251892089844	0		0.006052703857421875	6.01986572265625	0		
0.00487980318069458	0.005217802047729492	0		0.4888847961425781	-2.503096435546875	0		-1.03928515625	-0.04861041259765625	0		-0.80512255859375	-2.328296630859375	0		0.8560222778320312	-0.7025367431640624	0		2.64403271484375	0.043744178771972654	0		4.30834228515625	0.15419015502929687	0		5.57182470703125	0.05996461868286133	0		0.005354622840881348	6.0192236328125	0		
0.0042315258979797364	0.004608255863189697	0		0.48572885131835936	-2.531663330078125	0		-1.039933349609375	-0.04922256088256836	0		-0.7708627319335938	-2.334550048828125	0		0.846432373046875	-0.6999793701171875	0		2.6745078125	0.049570655822753905	0		4.30769384765625	0.15359133911132813	0		5.57117626953125	0.05936895751953125	0		0.03779598617553711	6.02400732421875	0		
0.0036255290508270263	0.004032590866088867	0		0.50945751953125	-2.51468115234375	0		-1.0405391845703125	-0.049801597595214846	0		-0.810436279296875	-2.333412353515625	0		0.8458286743164063	-0.7005523071289063	0		2.678772216796875	0.0419129638671875	0		4.30297802734375	0.14710401916503907	0		5.5616083984375	0.06097618865966797	0		0.0030844850540161133	6.019056640625	0		
-0.001009503960609436	-4.344980120658875E-4	0		0.4845782470703125	-2.53277685546875	0		-1.029286865234375	-0.06056534194946289	0		-0.7641996459960938	-2.345817626953125	0		0.84526904296875	-0.7010903930664063	0		2.6422158203125	0.0420427360534668	0		4.3024150390625	0.14657890319824218	0		5.565861328125	0.050365669250488285	0		-0.03160472297668457	6.01314111328125	0		
0.007452817916870117	-0.0021064000129699706	0		0.49699514770507813	-2.53751953125	0		-1.0166046752929687	-0.05031687545776367	0		-0.7975738525390625	-2.338722900390625	0		0.7848375854492188	-0.6964931030273438	0		2.65145751953125	0.028365259170532228	0		4.29400830078125	0.15223539733886718	0		5.57430517578125	0.04771659088134766	0		-0.01400318431854248	6.02030224609375	0		
0.005126584053039551	0.005456138134002686	0		0.4897359008789062	-2.52686376953125	0		-1.0170778198242187	-0.050794170379638674	0		-0.7590435791015625	-2.3399150390625	0		0.856300048828125	-0.7012833251953124	0		2.68052978515625	0.05736675262451172	0		4.31451220703125	0.15039610290527344	0		5.56901611328125	0.057358192443847655	0		0.018601646423339845	6.02522265625	0		
0.001641968011856079	0.0020723121166229246	0		0.5391260375976562	-2.53821630859375	0		-1.0425218505859375	-0.051779594421386715	0		-0.8103438110351563	-2.33342333984375	0		0.8469115600585938	-0.6995538330078125	0		2.640794189453125	0.0406585693359375	0		4.30510107421875	0.15114230346679688	0		5.5734013671875	0.04685538482666016	0		0.0019803420305252073	6.01607861328125	0		
0.0012531150579452514	0.0016652920246124268	0		0.4828150634765625	-2.534593994140625	0		-0.9679413452148438	-0.054567588806152346	0		-0.739860595703125	-2.3421357421875	0		0.843471923828125	-0.70290087890625	0		2.67639892578125	0.03960521697998047	0		4.31260009765625	0.14461233520507813	0		5.56405029296875	0.04864258575439453	0		0.03466416168212891	6.02106494140625	0		
-0.0031699481010437013	-0.0026370000839233397	0		0.5094381103515625	-2.537462158203125	0		-1.03144580078125	-0.06279282760620117	0		-0.8110571899414063	-2.334215576171875	0		0.852069091796875	-0.7064368286132813	0		2.640054443359375	0.03990445327758789	0		4.3002509765625	0.14448095703125	0		5.56301171875	0.06531389617919922	0		0.0011745259761810304	6.015294921875	0		
5.879330039024354E-4	9.415150284767151E-4	0		0.49406805419921873	-2.541531005859375	0		-1.03176025390625	-0.06314661407470704	0		-0.7625125732421875	-2.34346484375	0		0.8517586059570312	-0.7067791137695313	0		2.660882568359375	0.04718686294555664	0		4.30480615234375	0.13706932067871094	0		5.5723466796875	0.04582035064697266	0		-0.033281322479248046	6.00957177734375	0		
3.060339987277985E-4	6.21051013469696E-4	0		0.4860050964355469	-2.53070361328125	0		-1.0397838134765625	-0.04932935333251953	0		-0.79973681640625	-2.341112548828125	0		0.8455921630859375	-0.7009852294921874	0		2.644346435546875	0.03317871475219727	0		4.291763671875	0.15001203918457032	0		5.572064453125	0.04553504943847656	0		5.030890107154847E-4	6.014626953125	0		
5.442000180482864E-5	3.2576701045036315E-4	0		0.5106740417480469	-2.536452880859375	0		-0.9573237915039062	-0.06614913177490235	0		-0.7749225463867188	-2.33887158203125	0		0.8481796875	-0.7103285522460937	0		2.670328369140625	0.04542205047607422	0		4.30427099609375	0.13650848388671874	0		5.562162109375	0.06445565795898438	0		0.03331707763671875	6.0197265625	0		
-0.004242036819458008	-0.0038722870349884035	0		0.4814715270996094	-2.5361904296875	0		-1.044331298828125	-0.05383617401123047	0		-0.8141063842773437	-2.3374345703125	0		0.8420712890625	-0.704486083984375	0		2.638981201171875	0.03873627853393555	0		4.29917529296875	0.1433549346923828	0		5.5667724609375	0.055129894256591795	0		-5.0363000482320786E-5	6.01406005859375	0		
-3.6794701218605043E-4	-1.9654799997806548E-4	0		0.5082481689453126	-2.538931640625	0		-1.0327144775390624	-0.0643111801147461	0		-0.7674990844726562	-2.349548583984375	0		0.8477664794921875	-0.7108399047851562	0		2.674776611328125	0.037843887329101565	0		4.2989755859375	0.1431321258544922	0		5.5665732421875	0.05491519927978516	0		-2.873600125312805E-4	6.0138095703125	0		
-5.429210066795349E-4	-4.266250133514404E-4	0		0.4582615661621094	-2.5292451171875	0		-1.01968994140625	-0.05378720474243164	0		-0.798489990234375	-2.340217529296875	0		0.8506502075195312	-0.7081202392578125	0		2.64836767578125	0.025107872009277343	0		4.2916728515625	0.13605723571777345	0		5.57121435546875	0.044628883361816404	0		-0.03362117004394531	6.0071845703125	0		
0.0023583850860595702	0.00230708909034729	0		0.549850830078125	-2.54513427734375	0		-1.0198427124023437	-0.05400367736816406	0		-0.7986303100585938	-2.340432861328125	0		0.8446117553710938	-0.7022177734375	0		2.68264794921875	0.04828548049926758	0		4.3068642578125	0.15459222412109375	0		5.57106103515625	0.04444842529296875	0		-0.017626821517944338	6.01667919921875	0		
-8.287519812583923E-4	-8.303859829902649E-4	0		0.4543865966796875	-2.50857470703125	0		-1.0449893798828125	-0.054744140625	0		-0.8126761474609375	-2.336374267578125	0		0.8414280395507813	-0.7053511352539062	0		2.638321044921875	0.037912200927734375	0		4.2985126953125	0.1425686798095703	0		5.56611181640625	0.05437249374389649	0		-8.466190099716186E-4	6.01317578125	0		
